<svg width="9" height="9" viewBox="0 0 9 9" fill="none" xmlns="http://www.w3.org/2000/svg">
<path fill-rule="evenodd" clip-rule="evenodd" d="M8.78157 1.03157C9.00613 0.807023 9.00613 0.442953 8.78157 0.218401C8.55702 -0.00615007 8.19295 -0.00615007 7.9684 0.218401L4.49999 3.68682L1.03157 0.218402C0.807023 -0.00614996 0.442953 -0.00614996 0.218402 0.218402C-0.00614996 0.442953 -0.00614996 0.807023 0.218402 1.03157L3.68682 4.49999L0.218401 7.9684C-0.00615007 8.19295 -0.00615007 8.55702 0.218401 8.78157C0.442953 9.00613 0.807023 9.00613 1.03157 8.78157L4.49999 5.31316L7.9684 8.78157C8.19295 9.00613 8.55702 9.00613 8.78157 8.78157C9.00613 8.55702 9.00613 8.19295 8.78157 7.9684L5.31316 4.49999L8.78157 1.03157Z" fill="#F2F2F2"/>
</svg>
