<svg width="16" height="16" viewBox="0 0 16 16" fill="none" xmlns="http://www.w3.org/2000/svg">
<circle cx="8" cy="8" r="8" fill="#FAF6EF"/>
<path d="M4.69775 9.64799C4.51535 9.64799 4.34095 9.62559 4.17455 9.58079C4.01135 9.53279 3.86575 9.46239 3.73775 9.36959C3.60975 9.27679 3.50735 9.16159 3.43055 9.02399C3.35695 8.88639 3.31695 8.72639 3.31055 8.54399C3.31055 8.51519 3.32015 8.49119 3.33935 8.47199C3.35855 8.44959 3.38415 8.43839 3.41615 8.43839H4.06415C4.10895 8.43839 4.14255 8.44959 4.16495 8.47199C4.19055 8.49439 4.21135 8.52799 4.22735 8.57279C4.24335 8.66239 4.27375 8.73599 4.31855 8.79359C4.36335 8.84799 4.41935 8.88959 4.48655 8.91839C4.55695 8.94399 4.63535 8.95679 4.72175 8.95679C4.88175 8.95679 5.00495 8.90559 5.09135 8.80319C5.17775 8.69759 5.22095 8.54399 5.22095 8.34239V6.95519H3.66575C3.63375 6.95519 3.60495 6.94399 3.57935 6.92159C3.55695 6.89919 3.54575 6.87039 3.54575 6.83519V6.35999C3.54575 6.32479 3.55695 6.29599 3.57935 6.27359C3.60495 6.25119 3.63375 6.23999 3.66575 6.23999H5.98895C6.02415 6.23999 6.05295 6.25119 6.07535 6.27359C6.10095 6.29599 6.11375 6.32479 6.11375 6.35999V8.36639C6.11375 8.64479 6.05295 8.87999 5.93135 9.07199C5.80975 9.26079 5.64335 9.40479 5.43215 9.50399C5.22095 9.59999 4.97615 9.64799 4.69775 9.64799Z" fill="black"/>
<path d="M6.87177 9.59999C6.83657 9.59999 6.80777 9.58879 6.78537 9.56639C6.76297 9.54399 6.75177 9.51519 6.75177 9.47999V6.35999C6.75177 6.32479 6.76297 6.29599 6.78537 6.27359C6.80777 6.25119 6.83657 6.23999 6.87177 6.23999H8.17737C8.59017 6.23999 8.91497 6.33599 9.15177 6.52799C9.39177 6.71679 9.51177 6.98559 9.51177 7.33439C9.51177 7.56159 9.45577 7.75359 9.34377 7.91039C9.23497 8.06719 9.09097 8.18559 8.91177 8.26559L9.57417 9.44639C9.58377 9.46559 9.58857 9.48319 9.58857 9.49919C9.58857 9.52479 9.57737 9.54879 9.55497 9.57119C9.53577 9.59039 9.51177 9.59999 9.48297 9.59999H8.84937C8.78857 9.59999 8.74377 9.58559 8.71497 9.55679C8.68617 9.52479 8.66537 9.49599 8.65257 9.47039L8.10537 8.41439H7.61097V9.47999C7.61097 9.51519 7.59977 9.54399 7.57737 9.56639C7.55497 9.58879 7.52617 9.59999 7.49097 9.59999H6.87177ZM7.61097 7.73759H8.16777C8.31817 7.73759 8.43017 7.70079 8.50377 7.62719C8.58057 7.55359 8.61897 7.45279 8.61897 7.32479C8.61897 7.19999 8.58217 7.09919 8.50857 7.02239C8.43817 6.94559 8.32457 6.90719 8.16777 6.90719H7.61097V7.73759Z" fill="black"/>
<path d="M10.1905 9.59999C10.1553 9.59999 10.1265 9.58879 10.1041 9.56639C10.0817 9.54399 10.0705 9.51519 10.0705 9.47999V6.35999C10.0705 6.32479 10.0817 6.29599 10.1041 6.27359C10.1265 6.25119 10.1553 6.23999 10.1905 6.23999H11.6545C11.9297 6.23999 12.1553 6.27839 12.3313 6.35519C12.5073 6.43199 12.6369 6.54239 12.7201 6.68639C12.8065 6.82719 12.8497 6.99519 12.8497 7.19039C12.8497 7.30559 12.8273 7.40799 12.7825 7.49759C12.7409 7.58399 12.6881 7.65599 12.6241 7.71359C12.5633 7.77119 12.5057 7.81279 12.4513 7.83839C12.5729 7.89599 12.6801 7.99039 12.7729 8.12159C12.8689 8.25279 12.9169 8.40639 12.9169 8.58239C12.9169 8.79359 12.8689 8.97599 12.7729 9.12959C12.6801 9.27999 12.5425 9.39679 12.3601 9.47999C12.1809 9.55999 11.9601 9.59999 11.6977 9.59999H10.1905ZM10.9297 8.97599H11.6017C11.7393 8.97599 11.8433 8.93599 11.9137 8.85599C11.9841 8.77599 12.0193 8.68479 12.0193 8.58239C12.0193 8.47039 11.9825 8.37599 11.9089 8.29919C11.8385 8.22239 11.7361 8.18399 11.6017 8.18399H10.9297V8.97599ZM10.9297 7.57439H11.5585C11.6897 7.57439 11.7873 7.54079 11.8513 7.47359C11.9185 7.40639 11.9521 7.31999 11.9521 7.21439C11.9521 7.11199 11.9185 7.02879 11.8513 6.96479C11.7873 6.89759 11.6897 6.86399 11.5585 6.86399H10.9297V7.57439Z" fill="black"/>
</svg>
